HIERARCHY
ROOT root
{
	OFFSET 0.000000 0.000000 0.000000
	CHANNELS 6 Xposition Yposition Zposition Zrotation Yrotation Xrotation
	JOINT lhip
	{
		OFFSET 0.058581 -0.082280 -0.017664
		CHANNELS 3 Zrotation Yrotation Xrotation
		JOINT lknee
		{
			OFFSET 0.043451 -0.386469 0.008037
			CHANNELS 3 Zrotation Yrotation Xrotation
			JOINT lankle
			{
				OFFSET -0.014790 -0.426874 -0.037428
				CHANNELS 3 Zrotation Yrotation Xrotation
				JOINT ltoe
				{
					OFFSET 0.041054 -0.060286 0.122042
					CHANNELS 3 Zrotation Yrotation Xrotation
					End Site
					{
						OFFSET 0.000000 0.000000 0.000000
					}
				}
			}
		}
	}
	JOINT rhip
	{
		OFFSET -0.060310 -0.090513 -0.013543
		CHANNELS 3 Zrotation Yrotation Xrotation
		JOINT rknee
		{
			OFFSET -0.043257 -0.383688 -0.004843
			CHANNELS 3 Zrotation Yrotation Xrotation
			JOINT rankle
			{
				OFFSET 0.019056 -0.420046 -0.034562
				CHANNELS 3 Zrotation Yrotation Xrotation
				JOINT rtoe
				{
					OFFSET -0.034840 -0.062106 0.130323
					CHANNELS 3 Zrotation Yrotation Xrotation
					End Site
					{
						OFFSET 0.000000 0.000000 0.000000
					}
				}
			}
		}
	}
	JOINT lowerback
	{
		OFFSET 0.004439 0.124404 -0.038385
		CHANNELS 3 Zrotation Yrotation Xrotation
		JOINT upperback
		{
			OFFSET 0.004488 0.137956 0.026820
			CHANNELS 3 Zrotation Yrotation Xrotation
			JOINT chest
			{
				OFFSET -0.002265 0.056032 0.002855
				CHANNELS 3 Zrotation Yrotation Xrotation
				JOINT lowerneck
				{
					OFFSET -0.013390 0.211636 -0.033468
					CHANNELS 3 Zrotation Yrotation Xrotation
					JOINT upperneck
					{
						OFFSET 0.010113 0.088937 0.050410
						CHANNELS 3 Zrotation Yrotation Xrotation
						End Site
						{
							OFFSET 0.000000 0.000000 0.000000
						}
					}
				}
				JOINT lclavicle
				{
					OFFSET 0.071702 0.114000 -0.018898
					CHANNELS 3 Zrotation Yrotation Xrotation
					JOINT lshoulder
					{
						OFFSET 0.122921 0.045205 -0.019046
						CHANNELS 3 Zrotation Yrotation Xrotation
						JOINT lelbow
						{
							OFFSET 0.255332 -0.015649 -0.022946
							CHANNELS 3 Zrotation Yrotation Xrotation
							JOINT lwrist
							{
								OFFSET 0.265709 0.012698 -0.007375
								CHANNELS 3 Zrotation Yrotation Xrotation
								End Site
								{
									OFFSET 0.000000 0.000000 0.000000
								}
							}
						}
					}
				}
				JOINT rclavicle
				{
					OFFSET -0.082954 0.112472 -0.023707
					CHANNELS 3 Zrotation Yrotation Xrotation
					JOINT rshoulder
					{
						OFFSET -0.113228 0.046853 -0.008472
						CHANNELS 3 Zrotation Yrotation Xrotation
						JOINT relbow
						{
							OFFSET -0.260127 -0.014369 -0.031269
							CHANNELS 3 Zrotation Yrotation Xrotation
							JOINT rwrist
							{
								OFFSET -0.269108 0.006794 -0.006027
								CHANNELS 3 Zrotation Yrotation Xrotation
								End Site
								{
									OFFSET 0.000000 0.000000 0.000000
								}
							}
						}
					}
				}
			}
		}
	}
}
MOTION
Frames: 13
Frame Time: 0.033333
-1.251608 1.380350 1.013525 78.040483 1.258187 88.199618 0.939862 -5.231077 -1.944871 -5.130336 -14.522737 3.322544 6.747033 -0.645986 -11.206583 0.000000 -0.000000 0.000000 3.673480 -2.928036 -5.608170 0.622732 -5.094178 18.827989 2.235337 -2.921909 -21.198364 0.000000 -0.000000 0.000000 -9.179254 4.242442 8.122815 1.533419 -3.728486 0.819336 0.627015 0.672372 2.252841 15.021133 -20.245715 -5.887271 24.833495 -26.407105 -3.448399 -5.838342 0.074300 -3.661362 -69.941479 -14.686474 30.264485 -145.488294 -75.624098 162.728427 18.619135 -6.341416 -50.276090 5.788400 -5.332503 1.011741 79.890919 -5.015470 10.600946 -129.657308 65.002472 -113.892558 19.717672 34.649770 -50.813206 
-1.246867 1.381713 1.012884 79.430580 0.991049 88.077444 0.561548 -5.730733 -1.862907 -5.620727 -15.762683 3.942007 7.093253 -0.301227 -11.776277 0.000000 -0.000000 0.000000 3.348587 -1.766521 -8.185867 -0.039177 -3.906346 24.591325 2.243097 -3.745459 -21.521400 0.000000 -0.000000 0.000000 -8.530320 3.668134 8.764759 0.194173 -2.731005 0.630836 -0.438516 1.172311 2.327726 15.232752 -22.199320 -5.860515 25.624794 -27.108204 -2.745262 -6.010015 1.108909 -4.353997 -67.653084 -12.499108 28.501342 -148.484344 -72.949027 171.316478 17.382894 -9.724714 -41.099493 3.792535 -4.978685 0.770987 78.945621 -7.116995 8.348535 -132.607998 67.767604 -112.600310 31.464623 34.749387 -41.228143 
-1.241483 1.382747 1.012739 80.581015 0.828795 87.826550 0.333824 -5.742398 -1.325003 -5.993034 -17.342665 4.012567 7.488471 0.018062 -11.755033 0.000000 -0.000000 0.000000 2.656312 -0.755317 -10.271791 0.013397 -2.038019 29.133826 1.596014 -3.963428 -22.180245 0.000000 -0.000000 0.000000 -7.319887 3.158235 9.279503 -1.509942 -1.565052 0.694803 -1.823890 1.752763 2.116914 15.196098 -24.360763 -4.928913 26.687269 -27.648097 -2.292818 -6.660113 1.469206 -4.803933 -64.181885 -10.666636 26.391124 -150.224036 -70.260526 178.793872 18.375773 -12.460763 -28.282166 1.680505 -3.456897 1.129549 77.859673 -8.744320 6.303608 -134.203936 72.142452 -111.653410 38.056588 32.131888 -34.089999 
-1.235013 1.383885 1.014853 81.463303 1.021051 87.399225 0.393054 -5.616986 -0.518191 -6.232801 -18.871825 4.094128 7.337232 0.656205 -11.694419 0.000000 -0.000000 0.000000 1.608395 -0.205901 -12.017005 0.032000 -0.266442 31.229886 1.185439 -4.254750 -22.252028 0.000000 -0.000000 0.000000 -5.323561 2.806680 10.241436 -3.730988 0.196968 0.737902 -3.183706 3.002388 1.564693 15.001919 -27.184273 -3.666947 27.924036 -27.191611 -2.470636 -7.729541 1.691763 -5.162434 -60.048973 -8.148740 23.781055 -152.476620 -67.695189 -173.978166 18.360854 -15.105795 -17.927718 -0.840385 -1.377770 1.960982 75.405811 -9.566748 3.579742 -132.597775 79.514511 -105.892235 40.957049 26.558063 -25.902073 
-1.231654 1.384200 1.017225 81.912782 1.247646 87.350333 0.499579 -5.908951 -0.249686 -6.222709 -19.578990 4.136165 7.403142 1.191118 -11.541752 0.000000 -0.000000 0.000000 0.846419 -0.421701 -12.917971 -0.505951 0.057174 30.867966 1.095733 -5.209939 -21.654841 0.000000 -0.000000 0.000000 -4.333537 2.900286 10.534537 -4.697927 1.365780 0.816034 -3.689094 3.827100 1.562403 14.849347 -28.643519 -3.296086 28.811451 -27.329623 -3.037889 -8.067238 2.498668 -5.638879 -58.427243 -7.158300 22.943731 -153.582552 -67.150758 -171.588532 17.402165 -16.107193 -15.736304 -1.650438 -0.523429 1.843516 73.088986 -9.992984 3.030061 -123.335449 83.247472 -93.999595 42.412642 21.268746 -19.587893 
-1.226828 1.384143 1.020662 82.493664 1.848357 87.176688 0.966233 -5.993948 0.334289 -6.205825 -21.091715 4.054939 7.576622 2.329710 -11.699358 0.000000 -0.000000 0.000000 -0.264141 -1.675623 -13.493385 -0.981275 -0.126887 28.513762 1.412911 -6.143405 -20.255294 0.000000 -0.000000 0.000000 -2.800484 3.159236 11.162737 -5.743485 2.894286 0.062662 -3.809520 5.099657 1.952155 14.084638 -30.627630 -2.252739 29.883073 -27.155266 -4.553364 -8.103332 4.215256 -5.946598 -57.243958 -6.241367 21.587153 -151.197151 -67.334468 -173.499314 19.427195 -15.414404 -16.453171 -3.154492 0.612172 2.724830 69.530200 -9.231119 2.037629 -41.101853 87.005422 -7.970487 37.034399 15.395071 -13.652709 
-1.221131 1.384740 1.023655 83.571839 2.669595 87.401186 1.537731 -6.523129 0.342656 -5.878484 -21.876821 4.136614 7.754708 2.973919 -11.637450 0.000000 -0.000000 0.000000 -1.781823 -3.458930 -14.027005 -0.670641 -1.162341 24.986679 2.256402 -6.268716 -15.515210 0.000000 -0.000000 0.000000 -1.351774 3.715090 11.502549 -6.094744 4.224805 -1.338545 -3.315025 6.040286 2.666618 12.539667 -32.654233 -0.285165 31.069599 -26.319265 -6.529194 -7.818651 6.005867 -5.673337 -57.016659 -5.120639 20.790919 -148.605286 -68.200318 -176.760377 22.120622 -14.717129 -16.578825 -4.014650 1.301300 3.860394 66.414733 -9.051585 1.872276 -0.657899 81.086284 32.102818 29.136028 8.262021 -5.425978 
-1.216550 1.383437 1.026196 84.970199 3.581913 86.797703 2.374921 -6.706065 1.306862 -5.625791 -22.877188 3.969326 7.589873 3.181948 -11.790958 0.000000 -0.000000 0.000000 -3.478376 -5.603003 -13.022133 0.467575 -1.722008 20.903568 3.198086 -5.409868 -11.035451 0.000000 -0.000000 0.000000 -0.274155 4.694632 11.530482 -5.541356 5.188956 0.666858 -2.437897 6.681701 2.637522 13.176001 -33.181869 -1.871657 31.462428 -26.630135 -8.401646 -7.055028 7.002596 -5.789387 -57.843333 -4.050784 20.125334 -147.317871 -69.716043 -177.647322 25.430865 -14.436665 -16.384898 -4.432209 2.130173 3.762335 62.439801 -8.468721 1.186541 3.184110 73.756104 37.403500 22.447736 4.042337 3.355548 
-1.211583 1.381147 1.029610 86.509678 4.808729 86.216446 3.612427 -7.038529 1.956547 -5.561551 -23.837314 4.208998 7.450039 3.559496 -12.056453 0.000000 -0.000000 0.000000 -4.957591 -7.167645 -11.422498 2.063930 -1.028838 16.545373 4.721247 -4.034412 -6.042058 0.000000 -0.000000 0.000000 0.654161 5.929950 12.248857 -4.298341 6.107120 1.268182 -0.828822 7.014755 2.987874 13.841733 -34.135863 -3.271225 31.823504 -26.216104 -11.230903 -6.391858 8.485372 -5.929159 -58.933423 -3.091276 19.774150 -142.782982 -71.658025 177.929298 27.583963 -14.196228 -16.784137 -4.688029 2.386221 3.685021 57.623400 -8.426040 0.532424 4.128459 66.068148 38.978835 17.884334 1.471911 11.144447 
-1.204763 1.378073 1.033952 88.847259 6.563689 85.257861 5.302684 -6.518922 2.355706 -5.710310 -25.858732 5.912406 7.060265 3.498578 -12.772417 0.000000 -0.000000 0.000000 -6.728982 -9.491376 -8.644278 4.214040 1.336597 11.781841 7.163298 -2.004217 1.629341 0.000000 -0.000000 0.000000 2.057178 7.308618 13.432145 -2.152329 6.842403 2.211940 1.544735 7.140350 2.976601 14.309407 -35.471532 -4.858135 31.820105 -25.612092 -13.533128 -5.705991 9.686933 -5.893808 -59.939078 -1.326728 19.000963 -133.360202 -74.052691 168.418740 28.730960 -13.902123 -15.883069 -4.868936 2.959684 3.591385 50.615759 -9.092937 -1.048192 5.677473 56.974691 39.959389 16.404693 -0.882510 17.409146 
-1.199227 1.374965 1.037670 90.413564 7.908191 84.286151 6.546313 -6.728843 3.157806 -5.765030 -27.121289 6.828243 6.569592 4.107242 -13.036865 0.000000 -0.000000 0.000000 -7.909212 -10.187234 -6.320840 5.441876 3.413782 9.047640 9.581424 -1.270259 8.020128 0.000000 -0.000000 0.000000 3.315323 8.002961 14.583486 -0.392006 7.479241 3.392309 3.297868 7.255314 2.138171 14.497823 -36.708083 -5.317810 31.842784 -24.218647 -15.949270 -5.649980 9.888472 -5.659501 -59.778842 0.067620 18.595105 -124.173676 -76.166923 159.308964 28.401042 -14.003646 -14.998078 -4.712313 3.782416 3.417082 44.095917 -10.220601 -1.742651 7.722588 50.141749 41.076523 15.024947 -2.084576 21.927901 
-1.194772 1.371301 1.041201 91.811212 8.997214 83.721520 7.454246 -7.234132 3.714190 -5.465388 -28.292173 7.400658 6.055219 4.772809 -13.690235 0.000000 -0.000000 0.000000 -8.986988 -10.293031 -4.972418 6.443720 3.198329 8.244950 12.553307 -1.601887 13.513957 0.000000 -0.000000 0.000000 4.363535 8.390380 15.319901 1.403117 8.140231 4.344005 4.790049 7.264546 1.536199 15.413104 -37.503958 -6.522415 31.073154 -23.534299 -17.491881 -5.626822 9.886685 -5.273200 -59.093041 0.938458 18.753186 -110.292254 -77.983796 144.901566 28.375330 -15.074932 -13.409336 -4.337278 4.636701 3.292934 37.904886 -11.103674 -1.756719 8.102126 43.604957 39.957108 13.891428 -2.296137 25.931372 
-1.191237 1.366991 1.044770 93.255326 9.906826 83.342217 8.219601 -7.522819 3.799460 -5.471785 -29.608153 8.520416 5.765341 5.243712 -14.455679 0.000000 -0.000000 0.000000 -9.485480 -9.912230 -4.105703 7.088394 3.631722 8.294730 13.859511 -2.561106 17.654374 0.000000 -0.000000 0.000000 5.500960 8.125057 16.267937 3.008866 8.277620 4.762442 5.952803 7.064476 1.113819 15.898715 -37.640191 -7.399000 29.997450 -22.629350 -18.393540 -5.988418 10.211344 -4.963843 -57.719485 1.671781 18.657841 -92.695654 -78.328838 126.913044 28.050979 -15.706254 -12.355543 -3.861810 5.250721 2.718360 31.782786 -10.614914 -1.579798 8.304239 37.362928 38.814277 12.379903 -2.000446 29.036786 
